# xmcd
#
# Track frame offsets:
#  150
#  14869
#  26314
#  37230
#  46892
#  62112
#  71712
#  88668
#  98352
#  108745
#  121932
#
# Disc length: 1822 seconds
#
# Revision: 0
# Processed by: cddbd v1.5.1PL2 Copyright (c) Steve Scherf et al.
# Submitted via: Collectorz.com Music Collector 6.9
#
DISCID=94071c0b
DTITLE=Jeannie C. Riley - Jeannie C. Riley Harper Valley P.T.A.
DYEAR=1900
DGENRE=
TTITLE0=01 - Harper Valley P.T.A.
TTITLE1=02 - Widow Jones
TTITLE2=03 - No Brass Band
TTITLE3=04 - Mr. Harper
TTITLE4=05 - Run Jeannie Run
TTITLE5=06 - Shed Me No Tears
TTITLE6=07 - The Cotton Patch
TTITLE7=08 - Sippin' Shirley Thompson
TTITLE8=09 - The Little Town Suare
TTITLE9=10 - Ballad Of Louise
TTITLE10=11 - Satan Place
EXTD=
EXTT0=
EXTT1=
EXTT2=
EXTT3=
EXTT4=
EXTT5=
EXTT6=
EXTT7=
EXTT8=
EXTT9=
EXTT10=
PLAYORDER=
